# xmcd
#
# Track frame offsets:
#	150
#	11838
#	23169
#	36622
#	49747
#	64982
#	77767
#	91931
#	102739
#	115527
#	125038
#	135117
#	147848
#	159616
#	175381
#	187706
#	199140
#	213507
#	225098
#	235043
#
# Disc length: 3333 seconds
#
# Revision: 0
# Processed by: cddbd v1.5.2PL0 Copyright (c) Steve Scherf et al.
# Submitted via: dBpowerAMP V4.0
#
DISCID=0d0d0314
DTITLE=Merle Haggard - The Original Outlaw [CD 1)
DYEAR=2007
DGENRE=Country
TTITLE0=Sing A Sad Song
TTITLE1=(My Friends Are Gonna Be) Strangers
TTITLE2=The Fugitive
TTITLE3=Swinging Doors
TTITLE4=I Threw Away The Rose
TTITLE5=The Bottle Let Me Down
TTITLE6=Branded Man
TTITLE7=Today, I Started Loving You Again
TTITLE8=Sing Me Back Home
TTITLE9=The Legend Of Bonnie And Clyde
TTITLE10=Mama Tried
TTITLE11=I Take A Lot Of Pride In What I Am
TTITLE12=Workin' Man Blues
TTITLE13=Hungry Eyes
TTITLE14=Okie From Muskogee
TTITLE15=Someday We'll Look Back
TTITLE16=Daddy Frank (The Guitar Man)
TTITLE17=Carolyn
TTITLE18=Grandma Harp
TTITLE19=It's Not Love (But It's Not Bad)
EXTD=
EXTT0=
EXTT1=
EXTT2=
EXTT3=
EXTT4=
EXTT5=
EXTT6=
EXTT7=
EXTT8=
EXTT9=
EXTT10=
EXTT11=
EXTT12=
EXTT13=
EXTT14=
EXTT15=
EXTT16=
EXTT17=
EXTT18=
EXTT19=
PLAYORDER=
